<svg width="57" height="59" viewBox="0 0 57 59" fill="none" xmlns="http://www.w3.org/2000/svg">
<path d="M56.1004 53.601H47.5076C47.66 53.2964 47.7741 52.9684 47.8239 52.617L50.6307 32.3936C50.7566 31.4637 50.4777 30.5247 49.866 29.8115C49.2543 29.1073 48.3637 28.701 47.428 28.701H9.56298C8.62734 28.701 7.73672 29.1073 7.12499 29.8115C6.51325 30.5247 6.23437 31.4637 6.36033 32.3936L9.16714 52.617C9.21689 52.9684 9.33099 53.2964 9.48342 53.601H0.899621C0.395836 53.601 0 54.0073 0 54.5039V58.0972C0 58.5937 0.395836 59 0.899621 59H56.1004C56.5952 59 57 58.5937 57 58.0972V54.5039C57 54.0073 56.5952 53.601 56.1004 53.601ZM28.5 45.8548C25.8461 45.8548 23.687 44.1484 23.687 42.0538C23.687 39.9593 25.8461 38.2529 28.5 38.2529C31.1449 38.2529 33.304 39.9593 33.304 42.0538C33.304 44.1484 31.1449 45.8548 28.5 45.8548Z" fill="black"/>
<path d="M36.7945 21.4061C36.4886 21.2978 36.1378 21.37 35.8949 21.5957C33.8708 23.4646 31.2438 24.4938 28.5 24.4938C25.7562 24.4938 23.1293 23.4646 21.0961 21.5957C20.8532 21.37 20.5114 21.2978 20.1965 21.4061C16.8319 22.5707 13.7372 24.4396 11.1193 26.8953H45.8717C43.2628 24.4396 40.1681 22.5707 36.7945 21.4061Z" fill="black"/>
<path d="M28.5 21.1985C34.333 21.1985 39.0616 16.453 39.0616 10.5992C39.0616 4.74544 34.333 0 28.5 0C22.667 0 17.9384 4.74544 17.9384 10.5992C17.9384 16.453 22.667 21.1985 28.5 21.1985Z" fill="black"/>
</svg>
