<svg width="80" height="69" viewBox="0 0 80 69" fill="none" xmlns="http://www.w3.org/2000/svg">
<path d="M78.2001 41.5738C76.6137 42.3458 74.6905 41.6895 73.9161 40.1073L66.7177 26.2156V65.5398C66.7177 67.4505 65.1633 69 63.2458 69C61.3282 69 59.7754 67.4513 59.7754 65.5398V45.3697H58.221V65.5143C58.221 67.425 56.6682 68.9745 54.7506 68.9745C52.833 68.9745 51.2794 67.425 51.2794 65.5143V26.2164L47.1338 34.1974L50.9594 52.3292H45.6866V65.5135C45.6866 67.4242 44.133 68.9737 42.2154 68.9737C40.2986 68.9737 38.745 67.4242 38.745 65.5135V52.3292H37.1906V65.539C37.1906 67.4497 35.6371 68.9992 33.7203 68.9992C31.8035 68.9992 30.2491 67.4505 30.2491 65.539V52.3292H24.8411L25.6531 48.4097C25.5451 48.2757 20.3067 38.1878 20.3067 38.1878V66.5079C20.3067 67.8572 19.2091 68.9514 17.8547 68.9514C16.5003 68.9514 15.4027 67.8572 15.4027 66.5079V51.7199H14.2883V66.5079C14.2883 67.8572 13.1899 68.9514 11.8363 68.9514C10.4819 68.9514 9.38355 67.8572 9.38355 66.5079V38.1878L4.30037 48.0022C3.90917 48.802 2.75397 49.7159 1.27398 49.0381C0.140382 48.5189 -0.316416 47.1513 0.230782 46.0324L3.91717 38.4614C5.92596 34.321 7.28036 31.478 11.2803 31.478H18.4091C22.4099 31.478 23.7635 34.3202 25.7731 38.4614L27.1347 41.2581L30.2499 26.2172L25.3411 35.6942C24.0235 33.1567 22.7531 31.427 20.3995 30.9445L22.5131 26.604C25.3563 20.7427 27.2731 16.7187 32.9363 16.7187H43.0226C44.9346 16.7187 47.0898 17.5305 47.6562 18.0098C45.9762 19.3519 44.645 22.403 44.645 22.403L44.9306 23.7555C47.0602 19.5377 49.5178 16.7187 53.9466 16.7187H64.0322C69.6945 16.7187 71.4761 20.7427 74.3193 26.604L79.6761 37.321C80.4513 38.9024 79.7865 40.8011 78.2001 41.5738ZM37.9802 15.3933C42.245 15.3933 45.7018 11.9475 45.7018 7.69626C45.7018 3.44581 42.245 0 37.9802 0C33.7155 0 30.2587 3.44581 30.2587 7.69626C30.2587 11.9475 33.7155 15.3933 37.9802 15.3933ZM58.9858 15.3933C63.2498 15.3933 66.7073 11.9475 66.7073 7.69626C66.7073 3.44581 63.2498 0 58.9858 0C54.721 0 51.2642 3.44581 51.2642 7.69626C51.2642 11.9475 54.721 15.3933 58.9858 15.3933ZM14.8451 30.5418C17.8579 30.5418 20.3003 28.1072 20.3003 25.1048C20.3003 22.1007 17.8579 19.6669 14.8451 19.6669C11.8323 19.6669 9.39075 22.1015 9.39075 25.1048C9.38995 28.1072 11.8323 30.5418 14.8451 30.5418Z" fill="black"/>
</svg>
