<svg width="65" height="57" viewBox="0 0 65 57" fill="none" xmlns="http://www.w3.org/2000/svg">
<path d="M64.5141 9.63778C63.8417 8.96863 62.9729 8.97006 62.3019 9.63778L52.56 19.3329C51.8515 20.0394 50.935 20.0394 50.2258 19.3336L50.1752 19.2797C49.4646 18.5753 49.4646 17.6647 50.1752 16.9582L59.9143 7.26161C60.5881 6.59462 60.5881 5.73069 59.915 5.06154C59.2419 4.39239 58.3745 4.39311 57.7029 5.06082L47.9609 14.7567C47.2517 15.461 46.336 15.461 45.6268 14.7567L45.574 14.7028C44.8648 13.997 44.8648 13.0863 45.574 12.3798L55.3167 2.68538C55.9883 2.01766 55.9898 1.15374 55.316 0.483868C54.6443 -0.183844 53.8751 -0.138564 53.1045 0.484586L41.3325 10.0906C37.6622 13.1582 36.2922 17.2342 38.8502 21.142C39.0669 21.4719 39.0821 21.8866 38.7275 22.2014L9.50241 48.0797C7.06639 50.2352 7.17833 52.7997 9.56235 55.1709C11.9464 57.5427 14.5225 57.6555 16.6891 55.2298L42.6946 26.1408C43.0102 25.7865 43.4262 25.8023 43.7591 26.0172C47.6858 28.5637 51.7786 27.206 54.8617 23.5534L64.5133 11.8371C65.138 11.0717 65.1857 10.3062 64.5141 9.63778Z" fill="black"/>
<path d="M20.7231 26.3343C21.0864 26.1755 21.5291 26.2028 21.8454 26.5557L25.5063 30.6554L30.2173 26.4831L25.8233 22.5969C25.468 22.2828 25.4406 21.8408 25.6002 21.4799C27.3313 17.57 26.8749 11.6281 21.3998 6.17934C15.6156 0.422934 7.17077 -0.970708 2.66777 3.51137C-1.83522 7.99345 -0.436297 16.397 5.34863 22.1541C10.8244 27.6015 16.7942 28.0572 20.7231 26.3343Z" fill="black"/>
<path d="M54.6331 48.0739L38.839 34.1066L33.7091 39.8436L47.4463 55.2276C49.613 57.6533 52.1898 57.5434 54.5753 55.1686C56.9608 52.7968 57.072 50.2301 54.6331 48.0739Z" fill="black"/>
</svg>
