<svg width="53" height="60" viewBox="0 0 53 60" fill="none" xmlns="http://www.w3.org/2000/svg">
<path fill-rule="evenodd" clip-rule="evenodd" d="M11.8887 15.3497C10.8819 15.3497 9.85758 15.8381 9.25132 16.9071L0.284772 32.6672C-1.06766 35.2721 2.73565 37.4742 4.59191 34.5935L10.6121 26.1083L8.94652 36.3711L6.59642 57.9332C6.73965 60.6976 12.0486 60.6802 12.3734 57.9332L15.7045 43.8644C15.757 43.4134 16.0601 43.0379 16.524 43.0379C16.9879 43.0379 17.2926 43.4134 17.3443 43.8644L19.0098 57.9332C19.3355 60.6802 24.6436 60.6976 24.7868 57.9332L24.1015 38.0365L25.767 20.9948H27.2327L28.8983 38.0365L28.2146 57.9332C28.3578 60.6976 33.6668 60.6802 33.9916 57.9332L35.6571 43.8644C35.7096 43.4134 36.0127 43.0379 36.4807 43.0379C36.9446 43.0379 37.2444 43.4134 37.3002 43.8644L40.6313 57.9332C40.9519 60.6802 46.2667 60.6976 46.4083 57.9332L44.0574 36.3702L42.3918 26.1075L48.4078 34.5926C50.2641 37.4733 54.0682 35.2713 52.715 32.6663L43.7542 16.9063C43.1472 15.8373 42.1228 15.3488 41.1168 15.3488H39.8677C38.4095 16.2268 36.6573 16.7335 34.8144 16.7335C32.9664 16.7335 31.2142 16.2277 29.7569 15.3488H23.242C21.7897 16.2268 20.0367 16.7335 18.1887 16.7335C16.3408 16.7335 14.5886 16.2277 13.1362 15.3488L11.8887 15.3497Z" fill="black"/>
<path fill-rule="evenodd" clip-rule="evenodd" d="M18.1312 0C21.9958 0 25.1053 2.71188 25.1053 6.0825V8.57284C25.1053 11.9393 21.9958 14.6512 18.1312 14.6512C14.2666 14.6512 11.1579 11.9393 11.1579 8.57284V6.0825C11.1587 2.71188 14.2674 0 18.1312 0Z" fill="black"/>
<path fill-rule="evenodd" clip-rule="evenodd" d="M34.8684 0C31.0041 0 27.8947 2.71188 27.8947 6.0825V8.57284C27.8947 11.9393 31.0041 14.6512 34.8684 14.6512C38.7279 14.6512 41.8421 11.9393 41.8421 8.57284V6.0825C41.8421 2.71188 38.7287 0 34.8684 0Z" fill="black"/>
</svg>
