<svg width="62" height="62" viewBox="0 0 62 62" fill="none" xmlns="http://www.w3.org/2000/svg">
<path d="M53.4962 33.4773C50.4792 30.9429 47.3992 28.4789 44.4102 25.9093C40.5392 22.5865 36.7312 19.1861 32.8882 15.8281C31.5372 14.6453 30.0742 14.6594 28.6952 15.8281C27.5472 16.8066 26.3922 17.7781 25.2512 18.7567C19.5252 23.6565 13.7922 28.5493 8.08716 33.4703C7.85616 33.6674 7.69516 34.0898 7.68816 34.4066C7.66716 41.4466 7.66716 48.4796 7.67416 55.5196C7.67416 55.9561 7.68816 56.4137 7.78616 56.8361C8.34616 59.3705 10.5022 61.1234 13.1412 61.1516C16.1722 61.1868 19.1962 61.1586 22.2272 61.1586C22.8502 61.1586 23.4662 61.1586 24.2082 61.1586V42.6997H37.4242V61.1093C37.6062 61.1305 37.7182 61.1516 37.8302 61.1516C41.4142 61.1516 44.9982 61.1868 48.5822 61.1375C51.5852 61.0882 53.9092 58.6735 53.9162 55.6463C53.9302 48.5359 53.9232 41.4325 53.9022 34.3221C53.9022 34.0335 53.7132 33.6533 53.4962 33.4703V33.4773Z" fill="black"/>
<path d="M59.9082 25.2898C56.8842 22.678 53.8602 20.0661 50.8362 17.4543V6.37334C50.8362 5.2751 50.8292 4.17686 50.8152 3.08566C50.8152 2.55766 50.6052 1.98038 50.3392 1.5087C49.6812 0.333023 48.0362 -0.258336 46.6362 0.107743C45.0332 0.523103 44.1792 1.53686 44.1442 3.19126C44.1162 4.24726 44.1162 5.3103 44.1232 6.3663V11.6393C40.3992 8.42198 36.6822 5.2047 32.9582 1.99446C31.5092 0.741344 30.1092 0.734303 28.6672 1.98038C22.6472 7.1759 16.6272 12.3785 10.6072 17.574C7.59016 20.1788 4.57316 22.7906 1.55616 25.4025C0.821164 26.0361 0.233164 26.7682 0.0581643 27.7679C-0.242836 29.4997 0.646164 31.3513 2.22116 32.2594C3.68416 33.1113 5.35716 32.9282 6.78516 31.7103C13.7082 25.7897 20.6312 19.8549 27.5472 13.9202C29.4722 12.2729 32.0762 12.2306 34.0082 13.878C38.0332 17.3065 42.0372 20.7561 46.0552 24.1986C48.9042 26.6415 51.7602 29.0844 54.6092 31.5343C55.4282 32.2383 56.3452 32.6748 57.2552 32.717C59.3202 32.7311 61.2242 31.0626 61.5462 29.1125C61.8192 27.4793 61.0982 26.2965 59.9152 25.2757L59.9082 25.2898Z" fill="black"/>
</svg>
