<svg width="58" height="69" viewBox="0 0 58 69" fill="none" xmlns="http://www.w3.org/2000/svg">
<path d="M31.536 9.936C32.832 9.936 33.912 8.856 33.912 7.56V2.376C33.912 1.08 32.832 0 31.536 0C30.24 0 29.16 1.08 29.16 2.376V7.56C29.16 8.856 30.24 9.936 31.536 9.936Z" fill="black"/>
<path d="M18.072 11.232C18.504 12.096 19.296 12.528 20.16 12.528C20.52 12.528 20.88 12.456 21.168 12.312C22.32 11.736 22.824 10.368 22.248 9.144L19.944 4.464C19.368 3.312 18 2.808 16.776 3.384C15.624 3.96 15.12 5.328 15.696 6.552L18.072 11.232Z" fill="black"/>
<path d="M41.904 12.312C42.264 12.456 42.624 12.528 42.912 12.528C43.776 12.528 44.64 12.024 45 11.232L47.304 6.552C47.88 5.4 47.376 3.96 46.224 3.384C45.072 2.808 43.632 3.312 43.056 4.464L40.752 9.144C40.248 10.296 40.68 11.736 41.904 12.312Z" fill="black"/>
<path d="M56.88 42.336L51.84 34.632C51.552 34.2 51.408 33.696 51.408 33.12C50.544 22.968 42.048 15.048 31.68 15.048C26.928 15.048 22.536 16.704 19.152 19.584C19.224 19.944 19.296 20.304 19.296 20.736V23.4H22.032C24.552 23.4 26.64 25.488 26.64 28.008V34.128C26.64 36.648 24.552 38.736 22.032 38.736H19.224V41.4C19.224 43.848 17.352 45.864 14.904 46.008C16.2 48.24 17.856 50.256 19.8 51.912C20.376 52.416 20.664 53.136 20.664 53.856V65.16C20.664 66.024 21.384 66.816 22.248 66.888L39.24 68.4C40.248 68.472 41.184 67.68 41.184 66.6V58.608C41.184 58.104 41.616 57.672 42.12 57.672H48.096C49.896 57.672 51.408 56.16 51.408 54.36V46.368C51.408 46.008 51.696 45.72 52.056 45.72H55.008C56.736 45.72 57.816 43.776 56.88 42.336ZM45.144 37.224C43.704 37.224 42.552 36.072 42.552 34.632C42.552 33.192 43.704 32.04 45.144 32.04C46.584 32.04 47.736 33.192 47.736 34.632C47.736 36.072 46.584 37.224 45.144 37.224Z" fill="black"/>
<path d="M15.912 41.4V35.28H21.96C22.68 35.28 23.184 34.704 23.184 34.056V27.936C23.184 27.216 22.608 26.712 21.96 26.712H15.912V20.592C15.912 19.872 15.336 19.368 14.688 19.368H8.568C7.848 19.368 7.344 19.944 7.344 20.592V26.712H1.224C0.504 26.712 0 27.288 0 27.936V34.056C0 34.776 0.576 35.28 1.224 35.28H7.344V41.4C7.344 42.12 7.92 42.624 8.568 42.624H14.688C15.336 42.696 15.912 42.12 15.912 41.4Z" fill="black"/>
</svg>
