<svg width="64" height="64" viewBox="0 0 64 64" fill="none" xmlns="http://www.w3.org/2000/svg">
<path d="M31.825 0C14.2376 0 0 14.1099 0 31.54C0 48.9699 14.2376 63.0797 31.825 63.0797C49.4124 63.0797 63.6499 48.9699 63.6499 31.54C63.6917 14.1099 49.4124 0 31.825 0ZM40.9956 43.9899C39.6136 45.6498 37.8131 46.7704 35.6775 47.3513C34.7562 47.6004 34.3375 48.0984 34.3793 49.0114C34.4212 49.9243 34.3793 50.8788 34.3793 51.7917C34.3793 52.6219 33.9606 53.0783 33.1231 53.0783C32.118 53.1198 31.1131 53.1198 30.0662 53.0783C29.1868 53.0783 28.7682 52.5803 28.7682 51.7088V49.6754C28.7682 48.1813 28.6843 48.0984 27.2606 47.8908C25.3762 47.6004 23.5756 47.1853 21.8587 46.3553C20.5188 45.6914 20.3932 45.3594 20.7699 43.9899C21.0632 42.9524 21.3562 41.9149 21.6493 40.8774C22.0262 39.6739 22.3612 39.5493 23.45 40.0888C25.3343 41.0434 27.3444 41.6243 29.4381 41.8734C30.7781 42.0394 32.118 41.9149 33.3743 41.3754C35.7194 40.3793 36.0963 37.6818 34.0862 36.0633C33.4162 35.5239 32.6624 35.1089 31.8669 34.7769C29.815 33.8638 27.6794 33.1999 25.7531 32.0379C22.6125 30.1705 20.6024 27.5973 20.8538 23.8209C21.1049 19.5464 23.5756 16.849 27.5119 15.438C29.1449 14.8569 29.1449 14.8569 29.1449 13.197V11.4955C29.1868 10.209 29.3962 10.0014 30.6943 9.9599H31.8669C34.5887 9.9599 34.5887 9.9599 34.6306 12.6575C34.6306 14.5665 34.6306 14.5665 36.5568 14.8985C38.0224 15.1474 39.4461 15.5624 40.7862 16.1435C41.5399 16.4755 41.8331 16.9735 41.5818 17.7619C41.2468 18.9238 40.9118 20.1275 40.5349 21.2479C40.158 22.3269 39.823 22.4929 38.7762 21.995C36.6405 20.9575 34.4212 20.5424 32.0344 20.6668C31.4061 20.7084 30.82 20.7915 30.2337 21.0404C28.1819 21.9119 27.8469 24.1529 29.6056 25.5223C30.485 26.2278 31.49 26.7258 32.5368 27.1409C34.3375 27.8878 36.138 28.5933 37.8549 29.5479C43.3405 32.5359 44.848 39.3418 40.9956 43.9899Z" fill="black"/>
</svg>
