<svg width="44" height="44" viewBox="0 0 44 44" fill="none" xmlns="http://www.w3.org/2000/svg">
<path d="M43.5617 17.6C42.6817 14.96 40.0416 13.2 37.4015 13.2C33.6613 13.2 30.8012 16.06 30.8012 19.8C30.8012 22.66 32.5613 25.08 35.2014 25.96V29.7C35.2014 35.2 30.8012 39.6 25.301 39.6C19.8008 39.6 15.4006 35.2 15.4006 29.7V28.38C21.7809 27.28 26.401 21.78 26.401 15.4V2.2C26.401 0.88 25.521 0 24.201 0H19.8008C18.4807 0 17.6007 0.88 17.6007 2.2C17.6007 3.52 18.4807 4.4 19.8008 4.4H22.0009V15.4C22.0009 20.24 18.0407 24.2 13.2005 24.2C8.36033 24.2 4.40017 20.24 4.40017 15.4V4.4H6.60026C7.92031 4.4 8.80035 3.52 8.80035 2.2C8.80035 0.88 7.92031 0 6.60026 0H2.20009C0.880035 0 0 0.88 0 2.2V15.4C0 21.78 4.62018 27.28 11.0004 28.38V29.7C11.0004 37.62 17.3807 44 25.301 44C33.2213 44 39.6016 37.62 39.6016 29.7V25.96C43.1217 24.86 44.8818 21.12 43.5617 17.6Z" fill="black"/>
</svg>
