<svg width="69" height="53" viewBox="0 0 69 53" fill="none" xmlns="http://www.w3.org/2000/svg">
<path d="M52.5565 19.9658C43.4778 19.9658 36.1138 27.3597 36.1138 36.4817C36.1138 45.6045 43.4778 53 52.5565 53C61.6352 53 69 45.6045 69 36.4817C69 27.3605 61.6352 19.9658 52.5565 19.9658ZM63.1607 40.3296H56.3868V47.137C56.3868 48.0082 55.6829 48.7137 54.815 48.7137H50.2988C49.4293 48.7137 48.7262 48.0082 48.7262 47.137V40.3296H41.95C41.0836 40.3296 40.3805 39.6241 40.3805 38.7514V34.2136C40.3805 33.3425 41.0836 32.6353 41.95 32.6353H48.7262V25.8295C48.7262 24.9576 49.4293 24.2497 50.2988 24.2497H54.815C55.6821 24.2497 56.3868 24.9568 56.3868 25.8295V32.6353H63.1615C64.0279 32.6353 64.7334 33.3417 64.7334 34.2136V38.7514C64.7326 39.6241 64.0279 40.3296 63.1607 40.3296Z" fill="black"/>
<path d="M32.8156 36.4833C32.8156 25.5307 41.6549 16.6507 52.5573 16.6507C54.702 16.6507 56.7651 16.9992 58.6987 17.6346C58.4884 7.85591 51.3621 0 42.595 0C37.1097 0 32.2639 3.07614 29.3541 7.77313C26.4435 3.07614 21.5985 0 16.1131 0C7.21413 0 0 8.09321 0 18.0769C0 22.0226 1.12767 25.6734 3.03931 28.6463C3.03931 28.6463 12.2373 43.8867 29.3541 51.6196C31.8597 50.4875 34.1912 49.1915 36.354 47.8087C34.1253 44.5962 32.8156 40.6946 32.8156 36.4833Z" fill="black"/>
</svg>
