<svg width="62" height="62" viewBox="0 0 62 62" fill="none" xmlns="http://www.w3.org/2000/svg">
<path d="M42.2223 57.4898V60.8727C42.2223 61.4964 41.7037 62 41.0615 62H20.9391C20.2965 62 19.7784 61.4964 19.7784 60.8727V57.4898C19.7784 53.5134 22.4331 50.1354 26.1132 48.9395C27.5218 49.815 29.1936 50.3185 30.9848 50.3185C32.7806 50.3185 34.4562 49.8113 35.8685 48.9318C39.5599 50.1233 42.2223 53.5055 42.2223 57.4898Z" fill="black"/>
<path d="M22.4439 25.4691V28.8519C22.4439 29.4756 21.9253 29.9792 21.2831 29.9792L1.16074 29.9795C0.518623 29.9795 0 29.4759 0 28.8519V25.4691C0 21.4926 2.65474 18.1146 6.33488 16.9187C7.74343 17.7942 9.41517 18.2978 11.2064 18.2978C13.0022 18.2978 14.6778 17.7905 16.0901 16.911C19.7815 18.1028 22.4445 21.4849 22.4445 25.469L22.4439 25.4691Z" fill="black"/>
<path d="M18.3647 7.11062V9.16259C18.3647 13.0869 15.1527 16.2732 11.2057 16.2732C7.25877 16.2732 4.04666 13.0871 4.04666 9.16259V7.11062C4.04666 3.19023 7.25865 0 11.2057 0C15.1526 0 18.3647 3.19011 18.3647 7.11062Z" fill="black"/>
<path d="M62 28.8519C62 29.4756 61.4814 29.9792 60.8393 29.9792L40.7169 29.9795C40.0742 29.9795 39.5561 29.4759 39.5561 28.8522V25.4693C39.5561 21.4928 42.2109 18.1148 45.891 16.9189C47.2995 17.7944 48.9713 18.298 50.7626 18.298C52.5583 18.298 54.234 17.7907 55.6462 16.9113C59.3376 18.1028 62 21.4849 62 25.4686V28.8519Z" fill="black"/>
<path d="M57.9234 7.11062V9.16259C57.9234 13.0869 54.7114 16.2732 50.7643 16.2732C46.8173 16.2732 43.6053 13.0871 43.6053 9.16259V7.11062C43.6053 3.19023 46.8173 0 50.7643 0C54.7114 0 57.9234 3.19011 57.9234 7.11062Z" fill="black"/>
<path d="M38.1437 39.1327V41.1846C38.1437 45.1089 34.9317 48.2953 30.9847 48.2953C27.0378 48.2953 23.8257 45.1091 23.8257 41.1846V39.1327C23.8257 35.2123 27.0376 32.022 30.9847 32.022C34.9316 32.022 38.1437 35.2122 38.1437 39.1327Z" fill="black"/>
<path d="M8.82649 32.2482H5.01863C5.41637 41.4073 10.6251 49.3446 18.2025 53.616C18.6485 52.4235 19.2929 51.3181 20.1095 50.3442C13.6669 46.7285 9.22042 40.0119 8.82661 32.2479L8.82649 32.2482Z" fill="black"/>
<path d="M53.1744 32.2482C52.7796 40.011 48.3338 46.7278 41.8915 50.3446C42.7081 51.3185 43.3523 52.4239 43.7985 53.6164C51.3765 49.3451 56.5848 41.4083 56.9824 32.2493H53.1745L53.1744 32.2482Z" fill="black"/>
<path d="M41.3194 9.16221V7.41023C38.1537 6.04469 34.6663 5.28095 30.9998 5.28095C27.3229 5.28095 23.8238 6.04689 20.6494 7.41937V9.16221C20.6494 10.0869 20.5089 10.9791 20.2563 11.8236C23.4424 10.0672 27.1041 9.06303 30.9999 9.06303C34.8804 9.06303 38.5301 10.0589 41.707 11.8039C41.4581 10.9656 41.3191 10.0803 41.3191 9.16221H41.3194Z" fill="black"/>
</svg>
