<svg width="84" height="64" viewBox="0 0 84 64" fill="none" xmlns="http://www.w3.org/2000/svg">
<path d="M33.9046 38.4702L34.3327 36.7752H10.113V12.0733H53.633V20.6163C55.9841 20.3293 57.7331 20.3045 58.2206 20.3045C58.7878 20.3045 61.0611 20.3375 64 20.7794V17.0323C64 15.8906 63.0845 14.9677 61.952 14.9677H58.88V10.8387C58.88 8.55948 50.432 0 32 0C13.568 0 5.12 8.55742 5.12 10.8387V14.9677H2.048C0.919552 14.9677 0 15.8906 0 17.0323V26.3226C0 27.4622 0.919552 28.3871 2.048 28.3871H5.12V54.1935C5.12 56.4728 6.95501 58.3226 9.216 58.3226H12.032V61.9355C12.032 63.0751 12.9516 64 14.08 64H20.992C22.1245 64 23.04 63.0751 23.04 61.9355V58.3226H29.0796C28.9505 57.825 28.8645 57.313 28.8645 56.7783V44.5626C28.8645 41.5277 31.0395 38.9966 33.9046 38.4702ZM26.112 5.03123H37.632C38.697 5.03123 39.553 5.89626 39.553 6.96774C39.553 8.03716 38.697 8.90426 37.632 8.90426H26.112C25.0511 8.90426 24.191 8.03716 24.191 6.96774C24.193 5.89832 25.0532 5.03123 26.112 5.03123ZM16.257 52.257C13.8568 52.257 11.905 50.2937 11.905 47.8699C11.905 45.4462 13.8568 43.4828 16.257 43.4828C18.6614 43.4828 20.609 45.4462 20.609 47.8699C20.609 50.2937 18.6593 52.257 16.257 52.257Z" fill="black"/>
<path d="M81.0215 41.7433H79.7518L77.0316 30.8208L76.7336 30.4619C71.4244 24.077 59.0295 24 58.501 24C57.9764 24 45.5776 24.075 40.2684 30.4619L39.9704 30.8208L37.2502 41.7433H35.9805C34.3353 41.7433 33 43.1058 33 44.7847V56.7818C33 58.4607 34.3353 59.8232 35.9805 59.8232H37.4707V62.1569C37.4707 63.1748 38.2814 64 39.2789 64H45.375C46.3724 64 47.1791 63.1748 47.1791 62.1569V59.8232H69.8209V62.1569C69.8209 63.1748 70.6315 64 71.629 64H77.7251C78.7226 64 79.5293 63.1748 79.5293 62.1569V59.8232H81.0195C82.6647 59.8232 84 58.4607 84 56.7818V44.7847C84.002 43.1058 82.6667 41.7433 81.0215 41.7433ZM41.0334 54.4177C39.0663 54.4177 37.4707 52.7895 37.4707 50.7843C37.4707 48.777 39.0663 47.1509 41.0334 47.1509C42.9965 47.1509 44.5921 48.777 44.5921 50.7843C44.5921 52.7895 42.9965 54.4177 41.0334 54.4177ZM66.6158 53.4019C66.6158 53.9615 66.1688 54.4157 65.6224 54.4157H51.3796C50.8332 54.4157 50.3861 53.9615 50.3861 53.4019V48.1626C50.3861 47.603 50.8332 47.1488 51.3796 47.1488H65.6224C66.1688 47.1488 66.6158 47.603 66.6158 48.1626V53.4019ZM41.3513 41.7433L43.5867 32.7591C47.1851 28.927 55.5165 28.0633 58.501 28.0572C61.4854 28.0633 69.8169 28.927 73.4153 32.7591L75.6507 41.7433H41.3513ZM75.9726 54.4177C74.0054 54.4177 72.4099 52.7895 72.4099 50.7843C72.4099 48.777 74.0054 47.1509 75.9726 47.1509C77.9357 47.1509 79.5313 48.777 79.5313 50.7843C79.5313 52.7895 77.9357 54.4177 75.9726 54.4177Z" fill="black"/>
</svg>
